# xmcd
#
# Track frame offsets:
#	150
#	12682
#	27365
#	49582
#	62797
#	73252
#	87329
#	100502
#	112346
#	124438
#
# Disc length: 1867 seconds
#
# Revision: 1
# Processed by: cddbd v1.5.2PL0 Copyright (c) Steve Scherf et al.
# Submitted via: audiograbber 1.83.01
#
DISCID=9207490a
DTITLE=Otis Redding - (Sittin' On) The Dock of the Bay and Other Hits 
DYEAR=2007
DGENRE=Soul
TTITLE0=(Sittin' On) the Dock Of the Bay 
TTITLE1=I've Got Dreams To Remember 
TTITLE2=Papas Got a Brand New Bag 
TTITLE3=A Lovers Question
TTITLE4=Love Man
TTITLE5=Free Me
TTITLE6=I Love You More Than Words Can Say
TTITLE7=I Can't Turn You Loose 
TTITLE8=That's What My Heart Needs 
TTITLE9=Just One More Day
EXTD=
EXTT0=
EXTT1=
EXTT2=
EXTT3=
EXTT4=
EXTT5=
EXTT6=
EXTT7=
EXTT8=
EXTT9=
PLAYORDER=
